<svg width="868" height="222" viewBox="0 0 868 222" fill="none" xmlns="http://www.w3.org/2000/svg">
<path fill-rule="evenodd" clip-rule="evenodd" d="M111 0C172.304 0 222 49.6964 222 111C222 172.304 172.304 222 111 222C49.6964 222 0 172.304 0 111C0 49.6964 49.6964 0 111 0ZM42 122.5C36.201 122.5 31.5 127.201 31.5 133C31.5 166.413 58.5868 193.5 92 193.5C97.799 193.5 102.5 188.799 102.5 183C102.5 177.201 97.799 172.5 92 172.5C70.1848 172.5 52.5 154.815 52.5 133C52.5 127.201 47.799 122.5 42 122.5ZM161 56C152.716 56 146 62.7157 146 71C146 79.2843 152.716 86 161 86C169.284 86 176 79.2843 176 71C176 62.7157 169.284 56 161 56Z" fill="white"/>
<path d="M360.111 198H328.929V76.3417H360.111V198Z" fill="white"/>
<path d="M388.173 127.604C388.173 119.887 389.433 112.721 391.953 106.107C394.63 99.4922 398.331 93.7439 403.055 88.8618C407.937 83.9798 413.686 80.2001 420.3 77.5228C427.072 74.6881 434.631 73.2707 442.978 73.2707C451.482 73.2707 459.042 74.6093 465.656 77.2866C472.428 79.9639 478.098 83.7435 482.665 88.6256C487.389 93.3502 490.933 99.0197 493.295 105.634C495.815 112.249 497.075 119.572 497.075 127.604V198H465.892V126.895C465.892 125.162 465.656 123.036 465.184 120.517C464.711 117.839 463.688 115.241 462.113 112.721C460.538 110.201 458.254 108.075 455.262 106.343C452.27 104.61 448.175 103.744 442.978 103.744C436.049 103.744 430.379 105.87 425.97 110.123C421.56 114.375 419.355 119.965 419.355 126.895V198H388.173V127.604Z" fill="white"/>
<path d="M611.231 137.525C611.231 132.643 610.365 128.076 608.632 123.824C607.058 119.572 604.853 115.871 602.018 112.721C599.183 109.571 595.876 107.13 592.096 105.398C588.317 103.508 584.301 102.563 580.049 102.563C575.797 102.563 571.781 103.429 568.001 105.162C564.221 106.894 560.914 109.335 558.079 112.485C555.245 115.635 552.961 119.335 551.229 123.588C549.654 127.84 548.866 132.486 548.866 137.525C548.866 142.407 549.654 146.974 551.229 151.227C552.961 155.321 555.245 158.943 558.079 162.093C560.914 165.085 564.221 167.448 568.001 169.18C571.781 170.912 575.797 171.778 580.049 171.778C584.301 171.778 588.317 170.912 592.096 169.18C595.876 167.29 599.183 164.849 602.018 161.857C604.853 158.707 607.058 155.085 608.632 150.99C610.365 146.738 611.231 142.25 611.231 137.525ZM642.413 137.289C642.413 146.108 640.838 154.376 637.689 162.093C634.696 169.81 630.444 176.582 624.932 182.409C619.42 188.078 612.806 192.567 605.089 195.874C597.53 199.181 589.183 200.835 580.049 200.835C570.757 200.835 562.253 199.181 554.536 195.874C546.976 192.567 540.441 188.078 534.929 182.409C529.417 176.582 525.086 169.81 521.936 162.093C518.944 154.376 517.448 146.108 517.448 137.289C517.448 128.627 518.944 120.438 521.936 112.721C525.086 105.004 529.259 98.2323 534.456 92.4053C539.811 86.5783 545.953 82.0112 552.882 78.704C559.969 75.3968 567.528 73.7431 575.56 73.7431C590.049 73.7431 601.939 78.4677 611.231 87.9169V22.245H642.413V137.289Z" fill="white"/>
<path d="M746.701 111.54C743.867 108.075 740.402 105.398 736.307 103.508C732.213 101.618 727.646 100.673 722.606 100.673C718.039 100.673 713.787 101.54 709.849 103.272C705.912 105.004 702.448 107.445 699.455 110.595C696.621 113.587 694.258 117.209 692.369 121.462C690.636 125.714 689.691 130.438 689.534 135.635L746.701 111.54ZM781.663 159.258C778.041 171.7 771.112 181.779 760.875 189.496C750.796 197.055 738.118 200.835 722.842 200.835C714.18 200.835 706.07 199.181 698.51 195.874C690.951 192.567 684.337 188.078 678.667 182.409C672.998 176.582 668.509 169.81 665.202 162.093C662.052 154.376 660.477 146.108 660.477 137.289C660.477 128.47 662.052 120.202 665.202 112.485C668.509 104.61 672.998 97.8386 678.667 92.1691C684.337 86.3421 690.951 81.775 698.51 78.4677C706.07 75.003 714.18 73.2707 722.842 73.2707C730.087 73.2707 737.016 74.4518 743.63 76.8141C750.245 79.0189 756.151 82.3262 761.348 86.7358C766.702 90.9879 771.19 96.2637 774.813 102.563C778.592 108.863 781.191 116.107 782.608 124.296L696.621 160.439C699.77 164.534 703.55 167.763 707.96 170.125C712.369 172.33 717.251 173.432 722.606 173.432C727.646 173.432 732.528 172.33 737.252 170.125C741.977 167.763 745.678 164.14 748.355 159.258H781.663Z" fill="white"/>
<path d="M867.675 103.272C857.753 101.54 849.722 103.036 843.58 107.76C837.595 112.327 834.603 118.942 834.603 127.604V198H803.421V127.604C803.421 118.942 804.838 111.067 807.673 103.981C810.665 96.8937 814.917 90.9092 820.429 86.0271C825.941 81.145 832.634 77.6016 840.509 75.3967C848.54 73.1919 857.596 72.7195 867.675 73.9794V103.272Z" fill="white"/>
<path fill-rule="evenodd" clip-rule="evenodd" d="M282.307 62.6222V76.3417L282.182 66.237C282.182 64.9767 282.224 63.7718 282.307 62.6222Z" fill="white"/>
<path fill-rule="evenodd" clip-rule="evenodd" d="M344.5 26.5C356.374 26.5 366 36.1259 366 48C366 59.8741 356.374 69.5 344.5 69.5C332.626 69.5 323 59.8741 323 48C323 36.1259 332.626 26.5 344.5 26.5ZM331.135 50.2275C330.012 50.2277 329.101 51.1386 329.101 52.2617C329.101 58.7333 334.348 63.9802 340.819 63.9805C341.942 63.9805 342.853 63.0693 342.854 61.9463C342.853 60.8231 341.943 59.9131 340.819 59.9131C336.594 59.9128 333.169 56.4868 333.169 52.2617C333.169 51.1385 332.258 50.2275 331.135 50.2275Z" fill="white"/>
<path d="M282.071 196.11C288.843 198.157 296.717 198.709 305.694 197.764V169.416C297.819 169.889 291.914 168.393 287.976 164.928C284.197 161.463 282.307 155.479 282.307 146.974V103.981H304.276V76.3417H282.307L282.182 66.237C282.182 64.9767 282.224 63.7718 282.307 62.6222C282.784 56.0143 284.632 51.2348 287.852 48.2835C291.789 44.8188 297.695 43.3227 305.569 43.7952V15.4476C296.592 14.5027 288.718 15.0539 281.946 17.1012C275.174 19.1485 269.505 22.4558 264.938 27.0229C260.37 31.59 256.906 37.1807 254.543 43.7952C254.359 44.3238 254.182 44.8573 254.012 45.3956C252.412 50.4597 251.45 55.9486 251.125 61.8624V96.0669V146.738C251.125 155.085 252.306 162.644 254.668 169.416C257.03 176.031 260.495 181.621 265.062 186.189C269.629 190.756 275.299 194.063 282.071 196.11Z" fill="white"/>
</svg>
